<svg xmlns="http://www.w3.org/2000/svg" width="21" height="21" viewBox="0 0 21 21" fill="none"><g clip-path="url(#clip0_160_1295)"><path d="M7 9.1875H14" stroke="white" stroke-width="2" stroke-linecap="round"></path><path d="M7 12.25H11.8125" stroke="white" stroke-width="2" stroke-linecap="round"></path><path d="M14.875 2.92059C13.588 2.1761 12.0937 1.75 10.5 1.75C5.66751 1.75 1.75 5.66751 1.75 10.5C1.75 11.8997 2.07867 13.2226 2.66303 14.3959C2.81832 14.7077 2.87001 15.0641 2.77998 15.4005L2.25882 17.3484C2.03258 18.1939 2.80613 18.9674 3.65168 18.7412L5.59947 18.22C5.93594 18.13 6.29231 18.1817 6.60409 18.3369C7.77732 18.9213 9.10026 19.25 10.5 19.25C15.3324 19.25 19.25 15.3324 19.25 10.5C19.25 8.90627 18.8239 7.41201 18.0794 6.125" stroke="white" stroke-width="2" stroke-linecap="round"></path></g><defs><clipPath id="clip0_160_1295"><rect width="21" height="21" fill="white"></rect></clipPath></defs></svg>