<svg xmlns="http://www.w3.org/2000/svg" width="59" height="59" viewBox="0 0 59 59" fill="none"><g filter="url(#filter0_d_242_264)"><rect x="4" width="51" height="51" rx="8" fill="white"></rect><rect x="4.5" y="0.5" width="50" height="50" rx="7.5" stroke="#02273D"></rect><path fill-rule="evenodd" clip-rule="evenodd" d="M34.25 30.25H39V35H34.25V30.25ZM27.125 30.25H31.875V35H27.125V30.25ZM20 30.25H24.75V35H20V30.25ZM34.25 23.125H39V27.875H34.25V23.125ZM27.125 23.125H31.875V27.875H27.125V23.125ZM20 23.125H24.75V27.875H20V23.125ZM34.25 16H39V20.75H34.25V16ZM27.125 16H31.875V20.75H27.125V16ZM20 16H24.75V20.75H20V16Z" fill="#02273D"></path></g><defs><filter id="filter0_d_242_264" x="0" y="0" width="59" height="59" filterUnits="userSpaceOnUse" color-interpolation-filters="sRGB"><feGaussianBlur stdDeviation="2"></feGaussianBlur></filter></defs></svg>