<svg xmlns="http://www.w3.org/2000/svg" width="23" height="22" viewBox="0 0 23 22" fill="none"><path d="M18.7658 18.7755C18.9447 18.7145 19.1096 18.6197 19.251 18.4965C19.3924 18.3732 19.5075 18.224 19.5896 18.0573C19.6718 17.8906 19.7194 17.7098 19.7298 17.5251C19.7402 17.3404 19.7131 17.1555 19.6501 16.9811L19.1709 15.6508C19.1088 15.4754 19.0118 15.3137 18.8854 15.175C18.7591 15.0363 18.6059 14.9233 18.4347 14.8425C18.2635 14.7617 18.0776 14.7147 17.8877 14.7042C17.6978 14.6936 17.5077 14.7198 17.3282 14.7811C14.6046 15.7126 13.6462 13.0623 13.167 11.7286C12.6878 10.3948 11.733 7.75139 14.446 6.81639C14.8069 6.69252 15.1028 6.43403 15.2686 6.09763C15.4344 5.76123 15.4566 5.3744 15.3304 5.02201L14.8512 3.6917C14.7241 3.34523 14.4631 3.06101 14.124 2.89979C13.785 2.73856 13.3947 2.71311 13.0366 2.82889C9.633 3.99764 8.06859 6.02576 10.461 12.6705C12.8534 19.3151 15.3621 19.9373 18.7658 18.7755Z" stroke="#666666" stroke-width="1.5"></path><path d="M12.2652 16.5619C11.9782 16.6491 11.7273 16.8236 11.5492 17.0599C11.3711 17.2961 11.275 17.5817 11.2751 17.875C11.2751 18.2397 11.1266 18.5894 10.8623 18.8473C10.598 19.1051 10.2395 19.25 9.86572 19.25C9.49193 19.25 9.13345 19.1051 8.86915 18.8473C8.60484 18.5894 8.45635 18.2397 8.45635 17.875C8.45635 17.5103 8.30786 17.1606 8.04355 16.9027C7.77924 16.6449 7.42076 16.5 7.04697 16.5C6.67318 16.5 6.3147 16.6449 6.05039 16.9027C5.78609 17.1606 5.6376 17.5103 5.6376 17.875C5.6376 18.2397 5.48911 18.5894 5.2248 18.8473C4.96049 19.1051 4.60201 19.25 4.22822 19.25C3.85443 19.25 3.49595 19.1051 3.23164 18.8473C2.96733 18.5894 2.81885 18.2397 2.81885 17.875" stroke="#666666" stroke-width="1.5"></path></svg>