<svg xmlns="http://www.w3.org/2000/svg" width="14" height="21" viewBox="0 0 14 21" fill="none"><path d="M6.99944 0.976562C5.48392 0.976563 4.03047 1.5786 2.95883 2.65024C1.8872 3.72187 1.28516 5.17533 1.28516 6.69085C1.28516 10.8432 6.12325 15.7289 6.32325 15.9385C6.41179 16.0277 6.51712 16.0986 6.63318 16.1469C6.74923 16.1953 6.87372 16.2202 6.99944 16.2202C7.12517 16.2202 7.24965 16.1953 7.36571 16.1469C7.48176 16.0986 7.5871 16.0277 7.67563 15.9385C7.87563 15.7289 12.7137 10.8432 12.7137 6.69085C12.7137 5.17533 12.1117 3.72187 11.0401 2.65024C9.96842 1.5786 8.51496 0.976563 6.99944 0.976562Z" fill="#02273D"></path><path d="M6.99965 20.0245C4.28537 20.0245 2.23775 18.7959 2.23775 17.1673C2.23645 16.922 2.28506 16.679 2.3806 16.4531C2.42197 16.3298 2.48812 16.2164 2.57499 16.1197C2.66185 16.023 2.76759 15.9451 2.88569 15.8908C3.00379 15.8365 3.13175 15.807 3.2617 15.804C3.39164 15.801 3.52082 15.8247 3.64128 15.8735C3.76174 15.9224 3.87093 15.9953 3.96212 16.088C4.05331 16.1806 4.12458 16.2909 4.17154 16.4121C4.21849 16.5333 4.24014 16.6628 4.23514 16.7927C4.23015 16.9226 4.19863 17.0501 4.14251 17.1673C4.14251 17.3292 5.09489 18.1197 6.99965 18.1197C8.90441 18.1197 9.85679 17.3578 9.85679 17.1673C9.76201 16.9348 9.76287 16.6743 9.85918 16.4425C9.9555 16.2106 10.1395 16.0262 10.3711 15.9292C10.4873 15.8811 10.612 15.8565 10.7378 15.8568C10.8636 15.8571 10.9881 15.8824 11.1041 15.9311C11.2201 15.9798 11.3253 16.051 11.4136 16.1406C11.502 16.2302 11.5717 16.3364 11.6187 16.4531C11.7142 16.679 11.7628 16.922 11.7616 17.1673C11.7616 18.7959 9.71394 20.0245 6.99965 20.0245ZM13.4473 13.2245C13.5275 13.1282 13.5879 13.0171 13.6251 12.8975C13.6623 12.7779 13.6755 12.6521 13.664 12.5274C13.6525 12.4026 13.6165 12.2814 13.558 12.1706C13.4996 12.0598 13.4199 11.9616 13.3235 11.8816L1.89489 2.35781C1.79796 2.27777 1.68622 2.2176 1.56603 2.18074C1.44585 2.14389 1.31959 2.13106 1.19445 2.143C0.941724 2.16711 0.708926 2.29063 0.54727 2.48639C0.385614 2.68214 0.308343 2.9341 0.332455 3.18682C0.356567 3.43955 0.480087 3.67235 0.675842 3.834L12.1044 13.3578C12.2758 13.4998 12.4914 13.5773 12.7139 13.5769C12.8546 13.5759 12.9933 13.5438 13.1201 13.4829C13.2469 13.422 13.3586 13.3337 13.4473 13.2245Z" fill="#D32128"></path></svg>