<svg xmlns="http://www.w3.org/2000/svg" width="28" height="27" viewBox="0 0 28 27" fill="none"><circle cx="14" cy="13.5" r="13.5" fill="#D32128"></circle><path d="M17.5816 14.3265H14.8265V17.0816C14.8265 17.2278 14.7684 17.3679 14.6651 17.4713C14.5618 17.5746 14.4216 17.6327 14.2755 17.6327C14.1293 17.6327 13.9892 17.5746 13.8858 17.4713C13.7825 17.3679 13.7245 17.2278 13.7245 17.0816V14.3265H10.9694C10.8232 14.3265 10.6831 14.2685 10.5797 14.1651C10.4764 14.0618 10.4183 13.9216 10.4183 13.7755C10.4183 13.6294 10.4764 13.4892 10.5797 13.3859C10.6831 13.2825 10.8232 13.2245 10.9694 13.2245H13.7245V10.4694C13.7245 10.3232 13.7825 10.1831 13.8858 10.0798C13.9892 9.97642 14.1293 9.91837 14.2755 9.91837C14.4216 9.91837 14.5618 9.97642 14.6651 10.0798C14.7684 10.1831 14.8265 10.3232 14.8265 10.4694V13.2245H17.5816C17.7277 13.2245 17.8679 13.2825 17.9712 13.3859C18.0746 13.4892 18.1326 13.6294 18.1326 13.7755C18.1326 13.9216 18.0746 14.0618 17.9712 14.1651C17.8679 14.2685 17.7277 14.3265 17.5816 14.3265Z" fill="white"></path></svg>