<svg xmlns="http://www.w3.org/2000/svg" width="22" height="22" viewBox="0 0 22 22" fill="none"><path d="M13.2827 14.1674L12.876 14.5955C12.876 14.5955 11.9094 15.6132 9.27103 12.8354C6.63266 10.0576 7.59925 9.04003 7.59925 9.04003L7.85534 8.77042C8.48618 8.10626 8.54566 7.03994 7.99527 6.26149L6.86939 4.66909C6.18816 3.70559 4.8718 3.57832 4.09099 4.40036L2.68956 5.87581C2.3024 6.28342 2.04295 6.8118 2.07442 7.39795C2.15491 8.89752 2.79568 12.1239 6.37127 15.8884C10.163 19.8803 13.7208 20.039 15.1757 19.8954C15.6359 19.85 16.036 19.6018 16.3585 19.2623L17.6269 17.9269C18.4831 17.0256 18.2417 15.4803 17.1462 14.8498L15.4404 13.8679C14.7211 13.4539 13.8449 13.5755 13.2827 14.1674Z" fill="#02273D"></path><path d="M15.4647 10.9999C17.9302 10.9999 19.929 9.00113 19.929 6.53557C19.929 4.07002 17.9302 2.07129 15.4647 2.07129C12.9992 2.07129 11.0004 4.07002 11.0004 6.53557C11.0004 7.24972 11.1681 7.9247 11.4662 8.52329C11.5455 8.68236 11.5719 8.86417 11.526 9.03585L11.2601 10.0296C11.1446 10.461 11.5393 10.8557 11.9707 10.7402L12.9644 10.4743C13.1361 10.4284 13.3179 10.4548 13.477 10.5341C14.0756 10.8322 14.7506 10.9999 15.4647 10.9999Z" fill="#D32128"></path></svg>