<svg xmlns="http://www.w3.org/2000/svg" width="27" height="27" viewBox="0 0 27 27" fill="none"><circle cx="13.5" cy="13.5" r="13.5" fill="white"></circle><path d="M17.0817 14.3266H14.3266V17.0817C14.3266 17.2279 14.2686 17.368 14.1652 17.4714C14.0619 17.5747 13.9217 17.6327 13.7756 17.6327C13.6295 17.6327 13.4893 17.5747 13.386 17.4714C13.2826 17.368 13.2246 17.2279 13.2246 17.0817V14.3266H10.4695C10.3233 14.3266 10.1832 14.2686 10.0798 14.1652C9.97651 14.0619 9.91846 13.9217 9.91846 13.7756C9.91846 13.6295 9.97651 13.4893 10.0798 13.386C10.1832 13.2826 10.3233 13.2246 10.4695 13.2246H13.2246V10.4695C13.2246 10.3233 13.2826 10.1832 13.386 10.0798C13.4893 9.97651 13.6295 9.91846 13.7756 9.91846C13.9217 9.91846 14.0619 9.97651 14.1652 10.0798C14.2686 10.1832 14.3266 10.3233 14.3266 10.4695V13.2246H17.0817C17.2279 13.2246 17.368 13.2826 17.4714 13.386C17.5747 13.4893 17.6327 13.6295 17.6327 13.7756C17.6327 13.9217 17.5747 14.0619 17.4714 14.1652C17.368 14.2686 17.2279 14.3266 17.0817 14.3266Z" fill="#D32128"></path></svg>