<svg xmlns="http://www.w3.org/2000/svg" width="22" height="23" viewBox="0 0 22 23" fill="none"><path d="M16.804 10.6071C15.7391 10.6048 14.7185 10.1807 13.9655 9.42773C13.2125 8.67475 12.7885 7.65416 12.7861 6.58929C12.7906 6.13169 12.8752 5.67841 13.0361 5.25H3.85755C3.38395 5.25 2.92975 5.43814 2.59486 5.77302C2.25998 6.10791 2.07184 6.56211 2.07184 7.03571V17.75C2.07184 18.2236 2.25998 18.6778 2.59486 19.0127C2.92975 19.3476 3.38395 19.5357 3.85755 19.5357H18.1433C18.6169 19.5357 19.0711 19.3476 19.406 19.0127C19.7408 18.6778 19.929 18.2236 19.929 17.75V9.08036C19.5575 9.55466 19.0833 9.93849 18.542 10.203C18.0007 10.4674 17.4064 10.6056 16.804 10.6071Z" fill="#02273D"></path><path d="M15.1611 10.2506L12.1075 12.6523C11.7934 12.9044 11.4032 13.0429 11.0004 13.0452C10.5945 13.0449 10.2009 12.9063 9.88432 12.6523L2.14325 6.5452C2.24982 6.17262 2.4747 5.84481 2.78394 5.61127C3.09319 5.37773 3.47001 5.25112 3.85754 5.25056H13.0361C12.8752 5.67897 12.7906 6.13224 12.7861 6.58984C12.7895 7.36348 13.0151 8.11985 13.4362 8.76887C13.8573 9.41789 14.456 9.93221 15.1611 10.2506ZM16.804 3.46484C16.1859 3.46484 15.5817 3.64812 15.0678 3.9915C14.5539 4.33488 14.1534 4.82294 13.9168 5.39396C13.6803 5.96498 13.6184 6.59331 13.739 7.1995C13.8596 7.80569 14.1572 8.36251 14.5943 8.79955C15.0313 9.23659 15.5881 9.53422 16.1943 9.6548C16.8005 9.77538 17.4288 9.71349 17.9999 9.47697C18.5709 9.24044 19.0589 8.8399 19.4023 8.326C19.7457 7.8121 19.929 7.20791 19.929 6.58984C19.929 5.76104 19.5997 4.96619 19.0137 4.38014C18.4276 3.79408 17.6328 3.46484 16.804 3.46484Z" fill="#D32128"></path></svg>