<svg xmlns="http://www.w3.org/2000/svg" width="24" height="24" viewBox="0 0 24 24" fill="none"><path d="M19.9725 20.4826C20.163 20.4161 20.3385 20.3127 20.4889 20.1783C20.6394 20.0438 20.7619 19.881 20.8493 19.6992C20.9367 19.5173 20.9874 19.32 20.9985 19.1186C21.0095 18.9171 20.9807 18.7154 20.9137 18.5251L20.4037 17.0739C20.3376 16.8826 20.2343 16.7062 20.0998 16.5549C19.9654 16.4036 19.8024 16.2803 19.6201 16.1922C19.4379 16.104 19.2401 16.0527 19.038 16.0412C18.8359 16.0297 18.6335 16.0582 18.4425 16.1251C15.5437 17.1414 14.5237 14.2501 14.0137 12.7951C13.5037 11.3401 12.4875 8.45637 15.375 7.43637C15.7591 7.30124 16.0739 7.01925 16.2504 6.65227C16.4269 6.28528 16.4505 5.86329 16.3162 5.47887L15.8062 4.02762C15.6709 3.64965 15.3931 3.3396 15.0323 3.16371C14.6714 2.98783 14.256 2.96007 13.875 3.08637C10.2525 4.36137 8.58746 6.57387 11.1337 13.8226C13.68 21.0714 16.35 21.7501 19.9725 20.4826Z" stroke="white" stroke-width="1.5"></path><path d="M13.0538 18.0675C12.7483 18.1627 12.4813 18.353 12.2917 18.6108C12.1021 18.8685 11.9999 19.1801 12 19.5C12 19.8978 11.842 20.2794 11.5607 20.5607C11.2794 20.842 10.8978 21 10.5 21C10.1022 21 9.72065 20.842 9.43934 20.5607C9.15804 20.2794 9 19.8978 9 19.5C9 19.1022 8.84196 18.7206 8.56066 18.4393C8.27936 18.158 7.89783 18 7.5 18C7.10218 18 6.72064 18.158 6.43934 18.4393C6.15804 18.7206 6 19.1022 6 19.5C6 19.8978 5.84197 20.2794 5.56066 20.5607C5.27936 20.842 4.89782 21 4.5 21C4.10218 21 3.72064 20.842 3.43934 20.5607C3.15804 20.2794 3 19.8978 3 19.5" stroke="white" stroke-width="1.5"></path></svg>